/* XPM */
static char *_64393a1810a499ae45ef6da594e5b9c[] = {
/* columns rows colors chars-per-pixel */
"64 64 47 1 ",
"  c #29211F",
". c #1E2121",
"X c #272120",
"o c #2A2220",
"O c #2D2826",
"+ c #2C2928",
"@ c #302521",
"# c #4E413D",
"$ c #50423D",
"% c #484241",
"& c #AC330F",
"* c #B5350D",
"= c #BE360C",
"- c #BB3C15",
"; c #C2360C",
": c #C4380E",
"> c #C9390D",
", c #C43C12",
"< c #C83E13",
"1 c #CE4217",
"2 c #D74113",
"3 c #D84213",
"4 c #ED511F",
"5 c #F7531F",
"6 c #FB541F",
"7 c #E45122",
"8 c #EE5221",
"9 c #F15422",
"0 c #FD5621",
"q c #F15827",
"w c #FF5924",
"e c #F15929",
"r c #FF5D29",
"t c #FF602D",
"y c #F1815D",
"u c #FE845D",
"i c #F18562",
"p c #FE8761",
"a c #FF8964",
"s c #E59D86",
"d c #F19F86",
"f c #F2A186",
"g c #FFA285",
"h c #F1A28A",
"j c #FFA68A",
"k c #FFA98E",
"l c #FFAC93",
/* pixels */
"w0;*Xo*;=============:6ww0;===;*oo*;=========;=====;ww6waawww0;=",
"05:*oo*==============;5w65;===;*X *;===========;=;=;9w6wuuw6w6;=",
";;;*oX=;;;;;;;;;;;;;;;::::;;;=;*oo*;=;;=>;===;=====;00w6,,0ww0;=",
"==;*XX&=**********************=&Xo*;====**=========>5065;;5009;=",
";;:*o.ooX oo oooo oooXoo o ooX oXo*;===*##*;========;:;>==:;;;;=",
"**:*oXooooooo  oooXoo o oooooooX.o*;==;*$#-;==;====;=====;======",
"%$**Xo79***********************&Xo*;==;;11;====================;",
"%$=*Xo9w:;;;;;;;;;;;;;;=;;;;;;;=oX*;===;32;;==;==;===;===;==;===",
"11;* O5w;=====================;*oo*;====;===================;===",
"32;* o86,;;;==================;*Xo*;============================",
";=;* o9ww666:;;;;;;;;;;;;;;;;;>*o *>=;;;;;;;;;;;;;;;;;;;;;;;;;;;",
"==>* O799999-******************&o &********************=********",
"==;*o.Oo O@      O   o    O     ..ooo o oo oXoooooXoooooooXo o o",
"==;*oX   X..OOOo@   oo.         ooo ooooooooXo oo ooo@oooooooXX.",
"==;*  &**&.Oyiiy94***& O&************************=9999959994=&o.",
"==;*  *>>* +yaaut6:=>*  *;:=;;;;;;;;;;;;;;;;;;;;=:6w600w6ww0>*o.",
"==;* X*=;*Xoqrppr9,==*oX*;===;====================;;;;;;;:;;;*o.",
"==>* o*;;*XO9wuu05;=;*oo*;==**=====;========================;*o.",
"==;* o*;;*o@90<;:;;=;*oX*;=-$#*;==========;=;=======;=======;*o.",
";=:*Xo*;;*oo90;=====;* o*;=*$$-;=====;;=;======;;==;===;====;*o.",
"=:68O *;;*oo9w;=;===;*oo*;=:11;===;==;=====;;========;======;* X",
"::weo *;>*oo80;=====;*Xo*:=;33;==========================;;;:- .",
"6wuyO *:64oX*>======;*o *;===:;====;;==============;=====;56w8o.",
"6ruyO *:reo *;===;=;:*oo*:======;======;===;=;==;====;=;::6ww9@.",
"wwwqO *<gfO *;=====;65o 86;===;=====;==========;==;====;00w6w8o.",
"9884oX&-dsO *;=====;w9oO9w;============;=;;=;=======;;;<0wwww5@.",
"OoooX. o++. *;===;=;69o@96;========;======;==========;906wuuw5@.",
" oXooooo  X *;=;===;69Oo9w:;;===;====;========;=:;::;:00wtaaw9@.",
"********97oo*;=====;09@o9w65;=============;====;0096000wuaauw9O.",
";;;;;;;:w9oo*:===;=;09oO5wtw:=::,:;;;=;========,00rwwr0waaaar8 .",
"=======;69oo*;=====,09oo8wuuw66wuuw5;==========;0wuppuwwpaaaw9@X",
"======*:68@o*;=====;08oo9tuuw6wwuuw6;==========;0wuappwwuaauw9o.",
";;;;;;;;>*oX*:;:;;;;>*oo9wwww0wwwww6:>;;;;;;;;;:wwwwwwwwwwwrw9O.",
"*********&oo&********&Xo798959999898************49995999995557 .",
" oXoo ooo X.    ooo ooX.o@o@ooooOoOoX  oXoooooXooooOOo@oOO    ..",
"ooooXo  oo@ o   ooooooooXo.. oo     oooooo  X.Xoo   oooo oOO++@@",
"*************************&oX&**************&o &*******499eyihfe5",
";;;;;;;;:;;;;;;;;;;;;;;;:=oo*>;;;;;;;;;;;;>*o *;;:;;;>6wwwuajgt6",
"=========================* o*=============;*oo*;======;,6wwwttw6",
"==========;====;========;*oX*;=;==;======;;*o *;=;=====;66666666",
"====;;=====;=====;======;*oX*;===;====;===;*oo*;========;:;;::,;",
";=;;*-==;==========;=;==;*o *;==========;::*o *>=;====;=========",
"==;*$$*;================;*oo*;==;==;===:5065 o*;===;=;=;========",
"==;*$$*;===;;==;=;==;===;*o *;=========:0wwq  *;==========;==;==",
"=;==11;=;====;========;=;*oo*;=======;=:5wuiO *;================",
"===:33:==========;======;*oo*;=========:6ruiO *;======;==;===;;=",
"====;;=========;==;=====;* o*;==;======:6waiO *====;=====;======",
";=======;===;====;===;;;:*oo*;========;:0ruyO *=================",
"===;=;==;=======;====;5008oo=;=;;;;;;>6w6wwqO *>;;;;:>;;;;;;;;:;",
"===========;;=;====;;:0w08oX&*********899997  &*****************",
"=============;=====;0000w9@.ooXo oooooooo@Oo .   O       ooooo o",
"===;;====;======;==,00wrw9@.XoooXooo o  o o o        O Oooo@o@oo",
"=======;=;===;===;=;6ruuw5oX&***********************499999999999",
"::::=======;=======;0wuptqo =:;;;;;;;;;;;;;>;;;;;;=:ww6w000000w0",
"6666;=======;=;====;6wwrgf+ *======;===============,uut6::00::00",
"www6::;=;========;;:0w6rgf+ *;==;;**===============:yu05;:05::90",
"66ww05;========;=:600w00wq@ *;==;*##*;====;=========,,;;;=;;;=;,",
"twwww0::;========;5000w0w5O *:;;;-$$-;=======;;===;=====;=======",
"jgw6w666:=========:,0w00w9O 8w05;=11;=;=;====;===;;====;========",
"ljtwwww6::::;==;;==;5000w4o 9ww6::33;======;==============;=;==;",
"llkgw6ww6666;=======:;;;>* o8w6605:======;==;====;========;====;",
"jjjgt6w6www6::;==;=;=====* o5wwww0::;==========;======;=========",
"rrrw6ww6w66w65:======;==:*oo9ww6ww66;=;=========;=;==;=;;=======",
"6000w6ww6ww6w6:===;===;=;*o@5w6ww6w6;===;===;==============;==;="
};
